<svg xmlns="http://www.w3.org/2000/svg" viewBox="0 0 64 64" role="img" aria-label="Rental Passport">
  <rect width="64" height="64" rx="14" fill="#2563eb"/>
  <path d="M18 16h23a5 5 0 0 1 5 5v27a5 5 0 0 1-5 5H18a5 5 0 0 1-5-5V21a5 5 0 0 1 5-5Z" fill="#fff" opacity=".96"/>
  <path d="M23 30 32 23l9 7v15H23V30Z" fill="#dbeafe"/>
  <path d="M27 45V33h10v12" fill="#fff"/>
  <path d="M19 16h24v6H19z" fill="#bfdbfe"/>
  <circle cx="47" cy="45" r="11" fill="#16a34a"/>
  <path d="m42.5 45.5 3.2 3.2 6.2-7.1" fill="none" stroke="#fff" stroke-width="3" stroke-linecap="round" stroke-linejoin="round"/>
</svg>
