<svg xmlns="http://www.w3.org/2000/svg" viewBox="0 0 1200 630" role="img" aria-label="Rental Passport">
  <rect width="1200" height="630" fill="#f8fbff"/>
  <circle cx="1040" cy="80" r="220" fill="#dbeafe"/>
  <circle cx="120" cy="560" r="180" fill="#dcfce7"/>
  <rect x="90" y="90" width="1020" height="450" rx="36" fill="#ffffff" stroke="#dbe4f0" stroke-width="3"/>
  <defs>
    <linearGradient id="passportBlue" x1="140" y1="129" x2="202" y2="206" gradientUnits="userSpaceOnUse">
      <stop stop-color="#0d6bff"/>
      <stop offset="1" stop-color="#0448d8"/>
    </linearGradient>
    <linearGradient id="shieldBlue" x1="181" y1="168" x2="213" y2="207" gradientUnits="userSpaceOnUse">
      <stop stop-color="#176fff"/>
      <stop offset="1" stop-color="#073dbb"/>
    </linearGradient>
  </defs>
  <path d="M148 132h33.5L200 150.5V197c0 5.5-4.5 10-10 10h-42c-5.5 0-10-4.5-10-10v-55c0-5.5 4.5-10 10-10Z" fill="url(#passportBlue)"/>
  <path d="M181.5 132v14.5c0 2.2 1.8 4 4 4H200L181.5 132Z" fill="#4d95ff"/>
  <path d="m152.5 163.5 16.5-13.5 16.5 13.5V182h-8.8v-13.4h-15.4V182h-8.8v-18.5Z" fill="none" stroke="#fff" stroke-width="4.5" stroke-linecap="round" stroke-linejoin="round"/>
  <path d="M158 189h20" stroke="#fff" stroke-width="4.5" stroke-linecap="round"/>
  <path d="M195 169.5 210 175v10.8c0 11.7-6.3 19.4-15 23.2-8.7-3.8-15-11.5-15-23.2V175l15-5.5Z" fill="url(#shieldBlue)" stroke="#fff" stroke-width="4"/>
  <path d="m188.5 188.5 4.2 4.2 8.9-10.1" fill="none" stroke="#fff" stroke-width="4.5" stroke-linecap="round" stroke-linejoin="round"/>
  <text x="240" y="162" font-family="Inter, Arial, sans-serif" font-size="42" font-weight="900" fill="#07113f">Rental</text>
  <text x="240" y="208" font-family="Inter, Arial, sans-serif" font-size="42" font-weight="900" fill="#075eff">Passport</text>
  <text x="430" y="208" font-family="Inter, Arial, sans-serif" font-size="42" font-weight="900" fill="#07113f">.io</text>
  <text x="140" y="300" font-family="Inter, Arial, sans-serif" font-size="70" font-weight="900" fill="#07113f">Fill It Out Once.</text>
  <text x="140" y="382" font-family="Inter, Arial, sans-serif" font-size="70" font-weight="900" fill="#2563eb">Apply Anywhere.</text>
  <text x="140" y="464" font-family="Inter, Arial, sans-serif" font-size="70" font-weight="900" fill="#07113f">Protect Your Information.</text>
  <text x="140" y="510" font-family="Inter, Arial, sans-serif" font-size="26" fill="#475569">Verified rental information for landlords. Private documents stay protected.</text>
</svg>
